<svg xmlns="http://www.w3.org/2000/svg" viewBox="0 0 9.21 8.62"><defs><style>.cls-1{fill:#bab6b6;}</style></defs><title>download</title><g id="Layer_2" data-name="Layer 2"><g id="Layer_1-2" data-name="Layer 1"><path class="cls-1" d="M0,4.33a.26.26,0,0,1,.45-.07.51.51,0,0,1,.07.23V6.82a1.72,1.72,0,0,0,0,.39,1.17,1.17,0,0,0,.54.71,1.24,1.24,0,0,0,.63.17h5.8a1.22,1.22,0,0,0,1.16-.82A1.12,1.12,0,0,0,8.74,7c0-.82,0-1.64,0-2.46a.26.26,0,0,1,.3-.29c.06,0,.11,0,.16.07v3.1A3.17,3.17,0,0,1,9,7.8a1.7,1.7,0,0,1-1.51.82H1.76a1.77,1.77,0,0,1-1-.29A1.63,1.63,0,0,1,.1,7.5c0-.12-.07-.24-.1-.36Z"/><path class="cls-1" d="M4.9,5.66l1.2-1.2a.3.3,0,0,1,.35-.07.26.26,0,0,1,0,.44L6,5.31c-.38.39-.77.77-1.15,1.15a.29.29,0,0,1-.46,0L2.8,4.86c-.09-.09-.17-.18-.11-.32a.26.26,0,0,1,.45-.09l.94.93.26.27h0V.31A.31.31,0,0,1,4.53,0,.28.28,0,0,1,4.9.26v5.4Z"/></g></g></svg>