<svg xmlns="http://www.w3.org/2000/svg" viewBox="0 0 31.01 24.6"><defs><style>.cls-1{fill:#3cb1c7;}</style></defs><title>filter</title><g id="Layer_2" data-name="Layer 2"><g id="Layer_1-2" data-name="Layer 1"><path class="cls-1" d="M21.12,12.86a3.85,3.85,0,0,1-.55.1H0V11.65H20.89a10,10,0,0,1,1-1.56A3,3,0,0,1,27,11.23c.1.32.23.42.55.42,1.14,0,2.28,0,3.46,0V13H29.67c-.77,0-1.53,0-2.3,0a.54.54,0,0,0-.41.22,3.07,3.07,0,0,1-5.88-.4S21.06,12.77,21.12,12.86Zm2.94-2.5a1.69,1.69,0,0,0-1.76,1.8,1.78,1.78,0,0,0,3.56,0A1.69,1.69,0,0,0,24.06,10.36Z"/><path class="cls-1" d="M8.64,2.26H31V3.54H9.07a.44.44,0,0,0-.5.37A3.19,3.19,0,0,1,5.62,6.14,3.17,3.17,0,0,1,2.71,3.91a.47.47,0,0,0-.54-.38c-.71,0-1.43,0-2.17,0V2.26c.79,0,1.55,0,2.31,0A.57.57,0,0,0,2.75,2a3.08,3.08,0,0,1,5.82.14A.58.58,0,0,0,8.64,2.26ZM3.87,3A1.67,1.67,0,0,0,5.62,4.85,1.68,1.68,0,0,0,7.41,3.08a1.67,1.67,0,0,0-1.75-1.8A1.67,1.67,0,0,0,3.87,3Z"/><path class="cls-1" d="M31,21.06v1.29H15.84a.58.58,0,0,0-.62.4,3,3,0,0,1-2.79,1.86,3.05,3.05,0,0,1-2.82-1.9,2.87,2.87,0,0,1-.15-.37H0V21.06H9a.46.46,0,0,0,.53-.38,3.19,3.19,0,0,1,2.92-2.23,3.12,3.12,0,0,1,2.92,2.21c.11.36.29.4.61.4H31Zm-20.36.46a1.7,1.7,0,0,0,1.77,1.8,1.79,1.79,0,0,0,0-3.57A1.7,1.7,0,0,0,10.65,21.52Z"/></g></g></svg>