<svg xmlns="http://www.w3.org/2000/svg" viewBox="0 0 4.93 5.96"><defs><style>.cls-1{fill:#fff;}</style></defs><title>ongedaanmaken</title><g id="Layer_2" data-name="Layer 2"><g id="Layer_1-2" data-name="Layer 1"><path class="cls-1" d="M2.3,6,1.93,5.9A2.47,2.47,0,0,1,.56,5,2.36,2.36,0,0,1,0,3.56V3.49H.61a1.85,1.85,0,0,0,1,1.61,1.74,1.74,0,0,0,1.26.2,1.84,1.84,0,0,0,1.48-2A1.86,1.86,0,0,0,2.47,1.64V3L.93,1.48,1.57.84l.8-.8,0,0h.06V1c.13,0,.25,0,.37,0a2.48,2.48,0,0,1,1.49.83A2.44,2.44,0,0,1,4.45,5,2.42,2.42,0,0,1,3,5.89L2.63,6Z"/></g></g></svg>