<svg xmlns="http://www.w3.org/2000/svg" viewBox="0 0 133.55 57.39"><defs><style>.cls-1{fill:#ededec;}.cls-1,.cls-10,.cls-11,.cls-12,.cls-13,.cls-14,.cls-15,.cls-16,.cls-17,.cls-18,.cls-19,.cls-2,.cls-20,.cls-6,.cls-7,.cls-8,.cls-9{opacity:0.36;}.cls-2{fill:#cccac8;}.cls-3{fill:#dcdcdc;}.cls-3,.cls-4,.cls-5{opacity:0.42;}.cls-4{fill:#c7c7c5;}.cls-5{fill:#d2d2d2;}.cls-6{fill:#d7d7d6;}.cls-7{fill:#dfdcd9;}.cls-8{fill:#dbd8d5;}.cls-9{fill:#e7e6e6;}.cls-10{fill:#d5cec8;}.cls-11{fill:#eeeceb;}.cls-12{fill:#e0dddb;}.cls-13{fill:#928b85;}.cls-14{fill:#bfbbb7;}.cls-15{fill:#e9e8e6;}.cls-16{fill:#efefed;}.cls-17{fill:#dddddc;}.cls-18{fill:#beb8b3;}.cls-19{fill:#eae5e1;}.cls-20{fill:#b6ada4;}.cls-21{opacity:0.61;}.cls-22{fill:#838485;}.cls-23{fill:#808181;}.cls-24{fill:#7e7f7f;}.cls-25{fill:#868686;}.cls-26{fill:#979796;}.cls-27{fill:#8f8f8e;}.cls-28{fill:#8a8a8a;}.cls-29{fill:#696968;}.cls-30{fill:#6d6d6d;}.cls-31{fill:#777;}.cls-32{fill:#7b7a7b;}.cls-33{fill:#444445;}.cls-34{fill:#5e5c5c;}.cls-35{fill:#555454;}.cls-36{fill:#fefefe;}.cls-37{fill:#7e8080;}.cls-38{fill:#777778;}.cls-39{fill:#787777;}.cls-40{fill:#60605f;}.cls-41{fill:#50504f;}.cls-42{fill:#666665;}.cls-43{fill:#636363;}.cls-44{fill:#6a6a6a;}.cls-45{fill:#5f5f5f;}.cls-46{fill:#8a8c8b;}.cls-47{fill:#6c6c6b;}.cls-48{fill:#595757;}.cls-49{fill:#4f504f;}.cls-50{fill:#535353;}.cls-51{fill:#414142;}.cls-52{fill:#676767;}.cls-53{fill:#514f50;}.cls-54{fill:#2a2a2b;}.cls-55{fill:#7d7d7e;}.cls-56{fill:#444;}.cls-57{fill:#353535;}.cls-58{fill:#3f3f3f;}.cls-59{fill:#6a6a69;}.cls-60{fill:#767575;}.cls-61{fill:#727171;}.cls-62{fill:#515151;}.cls-63{fill:#494949;}.cls-64{fill:#343434;}.cls-65{fill:#2b2b2b;}.cls-66{fill:#707070;}.cls-67{fill:#686868;}.cls-68{fill:#7b7c7d;}.cls-69{fill:#767677;}.cls-70{fill:#747474;}.cls-71{fill:#8a8b8b;}.cls-72{fill:#79797a;}.cls-73{fill:#f1f1f1;}.cls-74{fill:#5e5e5e;}.cls-75{fill:#575757;}.cls-76{fill:#909090;}.cls-77{fill:#4f4f4f;}.cls-78{fill:#777676;}.cls-79{fill:#737373;}.cls-80{fill:#4d4e4d;}.cls-81{fill:#797879;}.cls-82{fill:#2e2f2f;}.cls-83{fill:#8e8e8e;}.cls-84{fill:#5d5d5d;}.cls-85{fill:#848383;}.cls-86{fill:#656565;}.cls-87{fill:#7c7c7c;}.cls-88{fill:#646464;}.cls-89{fill:#6e6e6e;}.cls-90{fill:#6f6f6e;}.cls-91{fill:#4d4d4d;}.cls-92{fill:#626262;}.cls-93{fill:#5c5b5b;}</style></defs><title>Asset 1</title><g id="Layer_2" data-name="Layer 2"><g id="Layer_1-2" data-name="Layer 1"><path class="cls-1" d="M17.61,16.48c2.55-3.37,6.17-2.66,10.41-2.05l-5.29,2.11C21,15.19,19.3,17.8,17.61,16.48Z"/><path class="cls-2" d="M17.64,17.91C16.82,16.54,15,17.68,14,16.6l-.14-.15a.62.62,0,0,1,.94,0l2.79,0c1.49-.4,2.95-.9,4.46-1.17,1.28-.22.89.6.66,1.23l-3.56.72Z"/><path class="cls-3" d="M13.23,14.52c-.72-2.28-1.44-4.55-2.17-6.83.27-.23.33-.65.77-.72A25,25,0,0,1,14,13.83C13.75,14.09,13.68,14.48,13.23,14.52Z"/><path class="cls-4" d="M10.25.24c.35,1.32,1,2.59.86,4,.27.71-.08.85-.75.7A11.69,11.69,0,0,1,9.56.21C9.81-.09,10-.06,10.25.24Z"/><path class="cls-5" d="M10.36,5l.75-.7C12,5,11.7,6,11.83,7l-.77.72Z"/><path class="cls-6" d="M13.23,14.52l.73-.69c.29.88.58,1.75.86,2.63h-.94C13.66,15.81,13.45,15.16,13.23,14.52Z"/><path class="cls-7" d="M18.58,23.41v3.12c-4-1.6-1.71,2.61-3.63,3.08-.07-2.72.36-6-4.42-4.84-1.21.05-1-1.16-1.71-1.6a1.83,1.83,0,0,1,1-1.54,33.35,33.35,0,0,1,3.79-1.2c1.18.4,1.45,1.08.57,2.33,1.52-1.47,2.67-3.31,5-1.74C20.18,22.07,18,22.46,18.58,23.41Z"/><path class="cls-8" d="M3.2,16.58l3.71,0c1.94,1,4.78-.15,6.12,2.25a1.75,1.75,0,0,1,0,.88,1.18,1.18,0,0,1-.66.58A6.48,6.48,0,0,0,10,21.49l-.84.4c-3.22,1-4.42-1.81-6.47-3A1.94,1.94,0,0,1,3.2,16.58Z"/><path class="cls-9" d="M18.58,23.41c-3.09-1.64,1.17-1.18.69-2.07C17.64,19,18,18.49,21.47,18L29.2,19c-3.38,2-5.92-.17-8.42.39-.06.76.75.83,1.06,1.27.43.61,1.7.9,1.17,1.86s-1.48,1.25-2.69.58C19.94,22.92,19.17,23.3,18.58,23.41Z"/><path class="cls-10" d="M21.47,18c-.94,1-3.86.9-2.2,3.39-.92.27-2.22-.75-2.72.1-2.31,4-2.12-.34-3.08-.75a.65.65,0,0,1-.26-.74,10.6,10.6,0,0,1,1.35-2.29A5.35,5.35,0,0,1,16.79,16c.61-.15,1.21-.54,1.84-.05a1.42,1.42,0,0,0,1.34.69c.05.89,1,.87,1.5,1.34Z"/><path class="cls-11" d="M3.2,19.31c.6-.06,1.46-1,1.75-.07.76,2.65,3,2,4.89,2.15l.22.28-.2.28L9,23.38c.37.53-1.58.33-.37,1.28,2.16,1.71-.94,2.26-1.06,3.5A8.86,8.86,0,0,0,6.27,27c-3-1.85-3.06-2.2,0-4.16-.68-1.63-3.39-.94-3.8-2.88C2.65,19.71,2.76,19.35,3.2,19.31Z"/><path class="cls-1" d="M17.07,15.15c2.55-3.37,6.17-2.66,10.42-2.05l-5.3,2.11C20.5,13.86,18.76,16.47,17.07,15.15Z"/><path class="cls-12" d="M7.59,28.16c-.09-1.09,1-1.74,1.33-2.66-1.19-.76-2,.86-3.3.08.44-1.64,2-1.85,3.4-2.2s.87,1.05,1.51,1.39C10.3,26.46,9,27.34,7.59,28.16Z"/><path class="cls-13" d="M17.1,16.59,14.91,18a2.31,2.31,0,0,1-1.72.53c-1-.33-2-.68-1.31-2l1.6-1.19C14.46,16.26,16.61,14.44,17.1,16.59Z"/><path class="cls-2" d="M17.1,16.59c-.82-1.37-2.68-.24-3.62-1.31l-.14-.16a.63.63,0,0,1,.95,0l2.78,0c1.49-.4,2.95-.9,4.47-1.16,1.28-.23.89.6.65,1.22l-3.56.72Z"/><path class="cls-3" d="M12.7,13.19q-1.09-3.4-2.17-6.83c.26-.23.32-.65.76-.71a25.2,25.2,0,0,1,2.14,6.86C13.22,12.77,13.15,13.15,12.7,13.19Z"/><path class="cls-14" d="M11.88,16.47A1.5,1.5,0,0,0,13.43,18c.45.78.65,1.43-.74,1.34-1.36-1.95-4.24-1.07-5.78-2.69C8.57,16.87,10.19,15.6,11.88,16.47Z"/><path class="cls-15" d="M21.47,18c-.91-.05-2.18.25-1.5-1.34H26C24.49,17.86,22.54,16.6,21.47,18Z"/><path class="cls-16" d="M3.2,19.31,2.47,20c-.19-1.22-2.25-2.78.73-3.41Z"/><path class="cls-17" d="M13.13,29.81c-.69-1.25.18-1.77.62-2.72C14.35,28.3,14.28,29.07,13.13,29.81Z"/><path class="cls-6" d="M12.7,13.19l.73-.68c.28.87.57,1.75.86,2.62h-.95C13.13,14.48,12.91,13.84,12.7,13.19Z"/><path class="cls-18" d="M9.86,22c0-.19,0-.37,0-.56h0A6,6,0,0,1,12,20c.22,0,.44,0,.65,0a.49.49,0,0,1,.83,0c0,.22,0,.45,0,.68C12.71,22.21,11.28,22.08,9.86,22Z"/><path class="cls-19" d="M12,20a2.23,2.23,0,0,1-2.17,1.39C10,20.21,10.45,19.37,12,20Z"/><path class="cls-20" d="M13.46,20l-.83,0c0-.22,0-.45.06-.67A1.38,1.38,0,0,0,13.43,18h1.48A2.19,2.19,0,0,1,13.46,20Z"/><g class="cls-21"><path class="cls-22" d="M131.07,42.62c0-1.53,0-3.06-.07-4.6.15-.19.18-.49.47-.57C132.06,39.23,132.45,41,131.07,42.62Z"/><path class="cls-23" d="M8.48,43.56a34.93,34.93,0,0,1-.09,7c-1.22-1.29-.53-2.53-.73-3.62a1.22,1.22,0,0,1-.08-1.25l.06-2.08A.54.54,0,0,1,8.48,43.56Z"/><path class="cls-24" d="M7.83,51.62c.82,1.53.51,3.11.22,4.7C6.91,54.86,7.5,53.22,7.83,51.62Z"/><path class="cls-25" d="M7.58,45.67c0,.42,0,.83.08,1.25-1.67-.41-3.43.41-5.07-.34a.39.39,0,0,1,0-.61Z"/><path class="cls-26" d="M1.24,46.6c-.17,2.63.44,5.27-.2,7.89C.34,54,.78,53.25.69,52.62c0-.79,0-1.59-.07-2.39A2.31,2.31,0,0,1,.8,48.31C.1,47.87.23,47.2.31,46.54c.25-.34.44-.79,1-.51A.46.46,0,0,1,1.24,46.6Z"/><path class="cls-27" d="M1,46.08l-.72.46c0-1.42-.3-2.86.28-4.24.3.08.38.4.59.57l0,2.48A.44.44,0,0,1,1,46.08Z"/><path class="cls-28" d="M8,40.29c-1.61-.89-1-2.17-.61-3.43l0,0c1.2,1,0,2.35.6,3.4Z"/><path class="cls-24" d="M8.48,43.56l-.84,0c.05-1.11-.39-2.28.4-3.3l0,0A4.63,4.63,0,0,1,8.48,43.56Z"/><path class="cls-29" d="M.57,36.85a1.68,1.68,0,0,1,.36-1.79c.74,1.17.47,2.41.49,3.6a.39.39,0,0,1-.54,0C.65,38.07,1,37.4.57,36.85Z"/><path class="cls-30" d="M1.05,38.68l.37,0-.24,4.21L.59,42.3l.06-3.18A.68.68,0,0,1,1.05,38.68Z"/><path class="cls-31" d="M.8,52.47l.24,2c-.1.25-.15.62-.33.72-.48.24-.59-.13-.67-.53-.17-.78.28-1.42.41-2.14C.53,52.37.65,52.36.8,52.47Z"/><path class="cls-32" d="M7.41,36.91l0,0c-1,.22-.95-.43-.89-1,0-.15.32-.42.42-.39C7.79,35.69,7.33,36.39,7.41,36.91Z"/><path class="cls-33" d="M.8,48.31.74,50.19c-.1.24-.23.27-.39.05C.15,49.52-.38,48.72.8,48.31Z"/><path class="cls-30" d="M1,46.08c.07-.24.13-.49.19-.73l1.4.62,0,.61-1.35,0Z"/><path class="cls-34" d="M.35,50.24a2.6,2.6,0,0,1,.39-.05L.8,52.47l-.35.07A4.09,4.09,0,0,1,.35,50.24Z"/><path class="cls-35" d="M1.05,38.68l-.4.44L.57,36.85C1.2,37.34.94,38.06,1.05,38.68Z"/><path class="cls-36" d="M14.69,52.85l0,.06c.28-.75-.15-1.49,0-2.24a4,4,0,0,1,.31-1.56c.2-3.63-.11-7.25-.16-10.88A4.87,4.87,0,0,1,15,35.56a1.5,1.5,0,0,1,2,0l-.05,0a8.52,8.52,0,0,1,1.93,1.61l.74,1.07c.55.64.05,1.55.57,2.2a3,3,0,0,1,0,.73,40.89,40.89,0,0,1,.34,6.45c-.06.86-.33,1.69-.37,2.55A3.76,3.76,0,0,1,20,51.15c-.54.85-.05,1.89-.49,2.76a4.28,4.28,0,0,1-1.93,2.22c-1.06.12-2.16.52-3.1-.37A3.28,3.28,0,0,1,14.69,52.85Z"/><path class="cls-37" d="M20.15,47.88l-.24-7.37c.47-.07.78,0,.53.6.33.35.65.7.41,1.24a4.91,4.91,0,0,0,.1,3.21v.94C20.41,46.81,21.28,47.92,20.15,47.88Z"/><path class="cls-38" d="M14.76,55.86a7.61,7.61,0,0,0,3.11-.26.45.45,0,0,1,.13.7,3.48,3.48,0,0,1-3.65,0A.73.73,0,0,1,14.76,55.86Z"/><path class="cls-39" d="M20.15,47.88l.79-1.38a14.87,14.87,0,0,1-.71,5.17c-.55-.35-.07-1.06-.51-1.44Z"/><path class="cls-40" d="M19.27,53.82A5.79,5.79,0,0,1,19.66,51c.51.37.11,1,.47,1.47a2.53,2.53,0,0,1-.42,1.85C19.3,54.4,19,54.32,19.27,53.82Z"/><path class="cls-41" d="M15.15,35.51l0-.49c.84-.58,1.56-.74,1.92.5Z"/><path class="cls-42" d="M19.27,53.82l.44.53A3.71,3.71,0,0,1,18,56.3l-.13-.7A4.37,4.37,0,0,0,19.27,53.82Z"/><path class="cls-43" d="M21,45.56a2.87,2.87,0,0,1-.1-3.21Z"/><path class="cls-44" d="M18.91,37.09A2.38,2.38,0,0,1,17,35.48C18.15,35.38,18.7,36,18.91,37.09Z"/><path class="cls-32" d="M20.44,41.11l-.53-.6a.3.3,0,0,1-.09-.33c-.11-.47-.43-1,.47-1C20.24,39.8,21.44,40.37,20.44,41.11Z"/><path class="cls-45" d="M20.13,52.5c-.5-.38-.38-1-.47-1.47l.06-.8c.54.35.33,1,.51,1.44Z"/><path class="cls-46" d="M20.29,39.13l-.47,1c-.55-.63-.29-1.33-.17-2A.78.78,0,0,1,20.29,39.13Z"/><path class="cls-36" d="M18,52.56l0,.06c-.32-.74.07-1.5-.07-2.24a4.27,4.27,0,0,0-.39-1.54c-.39-3.62-.26-7.25-.39-10.87a5,5,0,0,0-.37-2.66,1.53,1.53,0,0,0-2,.06l.05,0A8.78,8.78,0,0,0,13,37l-.68,1.11c-.52.67,0,1.55-.46,2.23a2.53,2.53,0,0,0,.08.72,42.22,42.22,0,0,0,0,6.46c.1.86.42,1.67.51,2.53a3.46,3.46,0,0,0,.17,1.06c.59.82.15,1.88.63,2.72a4.29,4.29,0,0,0,2,2.12c1.07.07,2.19.41,3.08-.52A3.31,3.31,0,0,0,18,52.56Z"/><path class="cls-37" d="M12.26,47.88l-.13-7.38c-.48,0-.77.06-.5.62-.31.37-.61.74-.35,1.26a5,5,0,0,1,.07,3.21l.05.94C12,46.82,11.13,48,12.26,47.88Z"/><path class="cls-38" d="M18.05,55.57a7.68,7.68,0,0,1-3.13-.1.45.45,0,0,0-.09.71A3.48,3.48,0,0,0,18.48,56,.76.76,0,0,0,18.05,55.57Z"/><path class="cls-39" d="M12.26,47.88l-.86-1.35a14.73,14.73,0,0,0,1,5.13c.53-.37,0-1.06.44-1.47Z"/><path class="cls-40" d="M13.44,53.76A5.82,5.82,0,0,0,12.91,51c-.5.39-.06,1-.4,1.48A2.59,2.59,0,0,0,13,54.31C13.44,54.34,13.7,54.24,13.44,53.76Z"/><path class="cls-41" d="M16.63,35.27v-.49c-.86-.54-1.59-.67-1.89.59Z"/><path class="cls-42" d="M13.44,53.76l-.42.55c.48.75.9,1.55,1.81,1.87l.09-.71A4.3,4.3,0,0,1,13.44,53.76Z"/><path class="cls-43" d="M11.35,45.59a2.89,2.89,0,0,0-.07-3.21Z"/><path class="cls-44" d="M13,37a2.38,2.38,0,0,0,1.85-1.7C13.62,35.29,13.11,36,13,37Z"/><path class="cls-32" d="M11.63,41.12l.5-.62a.3.3,0,0,0,.07-.33c.09-.48.38-1.06-.52-1C11.77,39.8,10.59,40.43,11.63,41.12Z"/><path class="cls-45" d="M12.51,52.48c.48-.4.33-1,.4-1.48,0-.27-.07-.54-.1-.81-.52.38-.29,1-.44,1.47Z"/><path class="cls-46" d="M11.68,39.14l.52,1c.52-.66.23-1.35.07-2A.78.78,0,0,0,11.68,39.14Z"/><path class="cls-47" d="M32,39.94l0,1a14.59,14.59,0,0,0,.07,5A12.86,12.86,0,0,1,31.83,51c-.47.08-.74,0-.55-.58.23-5.09-.07-10.18-.36-15.62,1.44.9.91,1.95,1,2.81A2.81,2.81,0,0,0,32,39.94Z"/><path class="cls-48" d="M25.48,39.09a12.88,12.88,0,0,1,.21-4.38,8.5,8.5,0,0,1,1.66,4.44c-.14.21-.17.49-.47.56l-.77,0C25.59,39.81,25.33,39.67,25.48,39.09Z"/><path class="cls-49" d="M25.33,50.73l0,2.8c-.47.91.23,2-.37,2.84a16.93,16.93,0,0,1-.2-7.56C25.4,49.33,24.83,50.18,25.33,50.73Z"/><path class="cls-43" d="M25.48,39.09l.63.59c0,1.22-.06,2.44-.08,3.66-.19.31-.32.7-.82.47A16.63,16.63,0,0,1,25.48,39.09Z"/><path class="cls-50" d="M31.5,56.54c-1-.16-1.57-.68-1.4-1.77.3-.38.19-.87.35-1.29.32-.47-.4-1.95,1.17-1.18C31.54,53.71,32,55.14,31.5,56.54Z"/><path class="cls-51" d="M30.53,53.81a1.05,1.05,0,0,1-.43,1c-.19-1.12-.39-2.24-.57-3.36-.08-.48,0-1,.6-.9.15,0,.24.64.35,1A2.82,2.82,0,0,1,30.53,53.81Z"/><path class="cls-52" d="M25.21,43.81l.82-.47-.34,3.25c-.37.22,0,1.11-.81.93Z"/><path class="cls-53" d="M28,41.32c1,.85.88,2.08,1,3.21l0-.05c-1.8-.1-.87-1.81-1.53-2.58C27.64,41.71,27.68,41.41,28,41.32Z"/><path class="cls-54" d="M29,44.53l.49,2.3c.05.55.65,1.25-.42,1.48C29,47,27.9,45.77,29,44.48Z"/><path class="cls-55" d="M30.53,53.81l-.05-2.31.8-1,.55.58V52c-.14.22-.29.23-.45,0C30.67,52.4,31.27,53.42,30.53,53.81Z"/><path class="cls-47" d="M31.38,52l.45,0c0,1.53.48,3.1-.33,4.57Z"/><path class="cls-56" d="M28,41.32l-.46.58-.61-2.19.47-.56A3.29,3.29,0,0,1,28,41.32Z"/><path class="cls-35" d="M29.06,48.31c.47-.4.26-1,.42-1.48.49.45.35,1.09.46,1.65s0,1-.55,1S29,48.75,29.06,48.31Z"/><path class="cls-41" d="M24.88,47.52l.81-.93A3.68,3.68,0,0,1,25.41,49c-.31-.09-.37-.41-.57-.59Z"/><path class="cls-57" d="M25,56.37c.29-.92-.34-2,.37-2.84.1,1,.69,2.08-.09,3.09,0,0-.1,0-.14-.07S25.05,56.43,25,56.37Z"/><path class="cls-58" d="M24.84,48.44l.57.59-.08,1.7c-.64-.51-.31-1.29-.53-1.92A.28.28,0,0,1,24.84,48.44Z"/><path class="cls-59" d="M52.69,34.5a8.54,8.54,0,0,1,5.24.74C56.11,35.77,54.41,35,52.69,34.5Z"/><path class="cls-60" d="M52.66,39.82a3.89,3.89,0,0,1-.3,2.4c-.29,0-.34-.34-.51-.5l-.06-5.27c0-.44.13-.8.65-.47.13.08.09.43.13.65A5.68,5.68,0,0,0,52.66,39.82Z"/><path class="cls-61" d="M55.84,55.05c1.29.15,2.64-.27,3.92.42a7.26,7.26,0,0,1-4.91.09C55,55.1,55.58,55.36,55.84,55.05Z"/><path class="cls-23" d="M52.48,44.82,56,44.9c-1,1.28-2.34.68-3.46,1A.66.66,0,0,1,52.48,44.82Z"/><path class="cls-62" d="M52.69,47.52a11.22,11.22,0,0,1-.54,4.59,7.46,7.46,0,0,1,.08-4.59C52.38,47.31,52.53,47.32,52.69,47.52Z"/><path class="cls-63" d="M55.84,55.05l-1,.51-2.14,0c-.21.11-.45.16-.54-.09a.72.72,0,0,1,.45-.89Z"/><path class="cls-64" d="M52.69,47.52h-.46c0-1.38,0-2.76,0-4.14.12-.21.24-.2.37,0l.18.82,0,1.13C52.76,46.05,52.72,46.79,52.69,47.52Z"/><path class="cls-43" d="M52.91,54c0,.33-.48.7.09,1-.94,1-.9-.08-.94-.52s-.52-1.13.29-1.29C52.73,53.08,52.84,53.61,52.91,54Z"/><path class="cls-40" d="M52.66,39.82a3.17,3.17,0,0,1-.09-3.19Z"/><path class="cls-65" d="M52.59,43.37h-.37l-.08-2.29.52.5Z"/><path class="cls-66" d="M62.32,47.31l.2,8.18-.64.07a69.41,69.41,0,0,1-.35-7.78C61.69,47.46,61.85,47.12,62.32,47.31Z"/><path class="cls-22" d="M65,42.59c0-1.53,0-3.07-.07-4.6.15-.19.18-.49.46-.58C66,39.2,66.4,41,65,42.59Z"/><path class="cls-67" d="M61.69,35.34a6.41,6.41,0,0,1,0,4.17,7.76,7.76,0,0,1-.48-4.18A.33.33,0,0,1,61.69,35.34Z"/><path class="cls-47" d="M61.69,35.34h-.48l-.07-.83a2.38,2.38,0,0,1,2.27-.2l.52,1C63.18,35.2,62.42,34.69,61.69,35.34Z"/><path class="cls-68" d="M65.41,37.41,65,38c-.35-.92-.71-1.83-1.06-2.75C65,35.53,65.27,36.43,65.41,37.41Z"/><path class="cls-69" d="M61.71,39.45a15.4,15.4,0,0,1,.1,4.18c-.16.22-.32.22-.5,0C61.38,42.24,60.48,40.74,61.71,39.45Z"/><path class="cls-69" d="M61.92,44.83c.73.31,1.28-.43,2-.35-.19.76-1.15,1-1.18,1.89-.49.17-.78-.07-1-.48a.25.25,0,0,1,.07-.26A.6.6,0,0,1,61.92,44.83Z"/><path class="cls-70" d="M61.73,45.89l1,.48c.36.51.14.79-.39.94l-.79.47C61.29,47.12,61,46.45,61.73,45.89Z"/><path class="cls-71" d="M64.24,49.06c.93.52,1.36,1.08,1.3,1.92,0,.08-.28.24-.35.21C64.44,50.81,64.2,50.17,64.24,49.06Z"/><path class="cls-72" d="M61.92,44.83l-.12.8c-1.32-.38-.64-1.25-.49-2h.5Z"/><path class="cls-73" d="M63.41,34.3l-2.27.2C61.83,33.6,62.6,33.72,63.41,34.3Z"/><path class="cls-38" d="M38.44,56.41a7.6,7.6,0,0,0,3.11-.26.46.46,0,0,1,.14.71,3.49,3.49,0,0,1-3.66,0A.81.81,0,0,1,38.44,56.41Z"/><path class="cls-41" d="M38.84,36.06l0-.48c.83-.59,1.56-.75,1.92.5Z"/><path class="cls-37" d="M35.94,48.43l-.13-7.38c-.47,0-.77.07-.5.63-.31.36-.61.73-.34,1.26A5,5,0,0,1,35,46.15l.06.94C35.63,47.37,34.81,48.52,35.94,48.43Z"/><path class="cls-38" d="M41.73,56.12a7.46,7.46,0,0,1-3.12-.1.45.45,0,0,0-.1.71,3.5,3.5,0,0,0,3.66-.15A.8.8,0,0,0,41.73,56.12Z"/><path class="cls-39" d="M35.94,48.43l-.85-1.34a14.71,14.71,0,0,0,1,5.12c.53-.37,0-1.05.44-1.46Z"/><path class="cls-40" d="M37.12,54.32a5.74,5.74,0,0,0-.53-2.77c-.49.4-.05,1.05-.4,1.49a2.58,2.58,0,0,0,.52,1.83C37.12,54.89,37.38,54.8,37.12,54.32Z"/><path class="cls-41" d="M40.31,35.82v-.49c-.86-.54-1.59-.66-1.89.6Z"/><path class="cls-42" d="M37.12,54.32l-.41.55a3.75,3.75,0,0,0,1.8,1.86l.1-.71A4.29,4.29,0,0,1,37.12,54.32Z"/><path class="cls-43" d="M35,46.15A2.89,2.89,0,0,0,35,42.94Z"/><path class="cls-44" d="M36.64,37.59a2.38,2.38,0,0,0,1.84-1.71C37.31,35.84,36.79,36.52,36.64,37.59Z"/><path class="cls-32" d="M35.31,41.68l.5-.63a.31.31,0,0,0,.08-.33c.08-.47.37-1.06-.53-1C35.45,40.36,34.27,41,35.31,41.68Z"/><path class="cls-45" d="M36.19,53c.48-.4.33-1,.4-1.49,0-.27-.06-.53-.1-.8-.52.38-.28,1-.44,1.46Z"/><path class="cls-46" d="M35.36,39.7l.53,1c.52-.66.22-1.34.06-2A.78.78,0,0,0,35.36,39.7Z"/><path class="cls-38" d="M46.93,53.07a36.8,36.8,0,0,1-6.73,3.3c-.46.51-.42.8.14.87a16.12,16.12,0,0,0,7.74-4.15A1.7,1.7,0,0,0,46.93,53.07Z"/><path class="cls-40" d="M47.12,53.1a5.78,5.78,0,0,1,.9-2.67c.44.46-.09,1,.19,1.53a2.59,2.59,0,0,1-.75,1.74C47,53.67,46.8,53.54,47.12,53.1Z"/><path class="cls-40" d="M47.5,51.45a5.76,5.76,0,0,1,.44-2.78c.51.38.09,1,.45,1.47A2.64,2.64,0,0,1,47.94,52C47.52,52,47.26,51.94,47.5,51.45Z"/><path class="cls-41" d="M46.43,49.15l.22-.43c1-.06,1.72.19,1.37,1.44Z"/><path class="cls-41" d="M47.81,49.72l.27-.4c-.44-.92-1-1.41-1.92-.5Z"/><path class="cls-44" d="M43.76,49.28a2.36,2.36,0,0,0,2.47-.47A1.67,1.67,0,0,0,43.76,49.28Z"/><path class="cls-69" d="M65.2,50.27a15.35,15.35,0,0,1,2.3,3.5c0,.27-.16.36-.41.27C66.4,52.81,64.84,52,65.2,50.27Z"/><path class="cls-74" d="M74.45,54.19l.66-6.55c1,2.71.33,5.39,0,8.07A1.43,1.43,0,0,1,74.45,54.19Z"/><path class="cls-75" d="M75.93,38.46c.13-.78-.28-1.68.79-2.67.69,2.2,1.46,4.1,1,6.27l-.18,0c-.75-.54-.54-1.4-.71-2.15C76.48,39.5,75.65,39.32,75.93,38.46Z"/><path class="cls-35" d="M77.55,42.1l.18,0c1.2,1.48.52,3.44,1.29,5l0,0c-.71.32-1-.07-1.09-.69A13.88,13.88,0,0,1,77.55,42.1Z"/><path class="cls-76" d="M75.93,38.46c.18.58,1.19.64.91,1.49-1.2,1.12.3,2.89-1,4-.79-.28.28-1-.29-1.3C75.58,41.24,75.14,39.8,75.93,38.46Z"/><path class="cls-77" d="M71.85,40.9a9.81,9.81,0,0,1,.63,3.59,10.68,10.68,0,0,1,.19,3.14.41.41,0,0,1-.64.19.36.36,0,0,1-.09-.36c-.46-1.38.12-2.88-.46-4.25L71.34,42C71.24,41.48,70.92,40.89,71.85,40.9Z"/><path class="cls-44" d="M81.9,50.91A14.08,14.08,0,0,1,81,55.07a2.91,2.91,0,0,1-.83-2,.7.7,0,0,1,.36-.49l.79-2.68C82.26,49.87,82,50.45,81.9,50.91Z"/><path class="cls-78" d="M83.94,39.71a5.72,5.72,0,0,1,.83-3.77,4.26,4.26,0,0,1-.46,3.73C84.21,39.86,84.08,39.87,83.94,39.71Z"/><path class="cls-52" d="M79.93,54.26,79,50c.15-.19.19-.48.5-.55l1,3.2a1.43,1.43,0,0,0-.2.23C80.07,53.26,80.6,53.94,79.93,54.26Z"/><path class="cls-79" d="M75.58,42.64c.85.27-.1.94.29,1.3.5.86.23,1.73,0,2.91C74.72,45.31,75.26,44,75.58,42.64Z"/><path class="cls-80" d="M79.93,54.26c.2-.46-.08-1.07.44-1.43.22.74.44,1.49.67,2.24-.05.47.18,1.37-.46,1.24C79.51,56.09,80,55,79.93,54.26Z"/><path class="cls-81" d="M81.81,48.05a6.06,6.06,0,0,1,.2-3.4c.49.19.23.78.56,1,0,.92.51,1.9-.4,2.68A.49.49,0,0,1,81.81,48.05Z"/><path class="cls-70" d="M71.85,40.9,71.34,42a4.05,4.05,0,0,1-.16-3.62Z"/><path class="cls-82" d="M74.45,54.19c.59.35.43,1,.63,1.52,0,.36-.06.91-.51.76-.75-.26-.93-1-1-1.75-.15-.5.07-.63.52-.54A.56.56,0,0,0,74.45,54.19Z"/><path class="cls-58" d="M70.47,37.71A3.88,3.88,0,0,1,69.93,35C71.08,35.73,70.88,36.55,70.47,37.71Z"/><path class="cls-83" d="M81.81,48.05l.36.32a3.27,3.27,0,0,1-.27,2.54l-.54-1C81.26,49.24,81.09,48.54,81.81,48.05Z"/><path class="cls-84" d="M83.94,39.71a.48.48,0,0,0,.37,0,4,4,0,0,1-.91,2.66A2.21,2.21,0,0,1,83.94,39.71Z"/><path class="cls-85" d="M72.43,47.77c0-1.09,0-2.18,0-3.28.71,1.51.39,3.13.47,4.7C71.89,49.05,72.36,48.34,72.43,47.77Z"/><path class="cls-58" d="M79.52,49.4,79,50c-.42-1-.91-1.94,0-2.9l0,0A4.62,4.62,0,0,1,79.52,49.4Z"/><path class="cls-86" d="M72.43,47.77c.08.51,0,1.09.52,1.42.1.35-.32.66,0,1.05s.23.74-.29.81-.6-.36-.61-.74c0-.83,0-1.66,0-2.49A2.57,2.57,0,0,0,72.43,47.77Z"/><path class="cls-66" d="M74.11,54.18l-.52.54a1.48,1.48,0,0,1-.17-2.15C74.14,53,74,53.66,74.11,54.18Z"/><path class="cls-85" d="M71.48,43.21c.93,1.33.51,2.81.46,4.25A16.44,16.44,0,0,1,71.48,43.21Z"/><path class="cls-45" d="M82.57,45.69l-.56-1c.1-.48-.08-1.11.88-1.32Z"/><path class="cls-25" d="M89.68,53.64c-.08-3.56-.17-7.11-.25-10.67.42-.72-.15-1.59.33-2.31l0-1.87c-.59-1,0-2.13-.46-3.13,1.1-.63.77.42.78.77.12,3,.18,5.92.26,8.88-.38.82-.07,1.68-.14,2.51,0,1.25.07,2.49.1,3.73,0,.63.06,1.25,0,1.88A.4.4,0,0,1,89.68,53.64Z"/><path class="cls-87" d="M90.09,53.64l0-1.94a.3.3,0,0,1,.47.07c-.09,1.57.39,3.19-.43,4.7A4.23,4.23,0,0,1,90.09,53.64Z"/><path class="cls-88" d="M90.58,51.77l-.47-.06c0-1.36,0-2.72-.07-4.07.1-.24.22-.25.37,0Z"/><path class="cls-52" d="M89.27,35.66c.72,1,.22,2.1.46,3.13C88.53,37.91,89.21,36.74,89.27,35.66Z"/><path class="cls-29" d="M90.09,53.64l.06,2.83c-1.12-.79-.37-1.88-.47-2.83Z"/><path class="cls-89" d="M89.76,40.66c-.14.77.36,1.63-.33,2.31C89.42,42.18,88.72,41.29,89.76,40.66Z"/><path class="cls-90" d="M90.41,47.6l-.37,0c0-.78-.46-1.62.27-2.33Z"/><path class="cls-47" d="M102,39.85l0,.95a14.84,14.84,0,0,0,.07,5,12.68,12.68,0,0,1-.25,5.13c-.47.08-.74,0-.55-.57.23-5.1-.07-10.19-.36-15.62,1.44.89.91,1.94,1,2.8A2.77,2.77,0,0,0,102,39.85Z"/><path class="cls-48" d="M95.53,39a12.92,12.92,0,0,1,.21-4.39,8.53,8.53,0,0,1,1.66,4.44c-.13.21-.17.5-.47.56l-.77,0C95.64,39.72,95.38,39.58,95.53,39Z"/><path class="cls-49" d="M95.38,50.64l0,2.81c-.46.9.23,1.95-.36,2.84a17,17,0,0,1-.21-7.57C95.45,49.25,94.88,50.09,95.38,50.64Z"/><path class="cls-43" d="M95.53,39l.63.59c0,1.21,0,2.43-.08,3.65-.18.31-.32.7-.81.47A16.18,16.18,0,0,1,95.53,39Z"/><path class="cls-50" d="M101.55,56.45c-1-.16-1.56-.68-1.4-1.77.3-.37.19-.87.36-1.28s-.41-2,1.16-1.19C101.59,53.62,102,55.05,101.55,56.45Z"/><path class="cls-51" d="M100.59,53.72a1.06,1.06,0,0,1-.44,1c-.19-1.12-.39-2.24-.57-3.36-.08-.48,0-1,.6-.89.15,0,.24.64.35,1A2.86,2.86,0,0,1,100.59,53.72Z"/><path class="cls-52" d="M95.27,43.72l.81-.47-.34,3.25c-.36.22,0,1.11-.8.93Z"/><path class="cls-53" d="M98,41.23c1,.85.87,2.08,1,3.21l0,0c-1.8-.1-.87-1.81-1.53-2.58C97.7,41.62,97.73,41.33,98,41.23Z"/><path class="cls-54" d="M99,44.44l.49,2.3c.06.55.65,1.25-.42,1.48-.06-1.27-1.16-2.54,0-3.83Z"/><path class="cls-91" d="M102.13,45.82a8.05,8.05,0,0,1-.07-5A17.24,17.24,0,0,1,102.13,45.82Z"/><path class="cls-55" d="M100.59,53.72l-.06-2.31.8-1,.55.57v.93q-.21.33-.45,0C100.72,52.32,101.32,53.33,100.59,53.72Z"/><path class="cls-47" d="M101.43,51.91l.45,0c0,1.54.49,3.1-.33,4.57Z"/><path class="cls-56" d="M98,41.23l-.47.58-.61-2.19.47-.56A3.36,3.36,0,0,1,98,41.23Z"/><path class="cls-35" d="M99.11,48.22c.47-.4.27-1,.42-1.48.49.46.36,1.09.46,1.65s0,1-.54,1S99,48.67,99.11,48.22Z"/><path class="cls-41" d="M94.94,47.43l.8-.93a3.68,3.68,0,0,1-.28,2.44c-.31-.08-.37-.4-.57-.58Z"/><path class="cls-57" d="M95.06,56.29c.28-.93-.34-2,.36-2.84.1,1,.69,2.07-.09,3.08l-.14-.07A1.92,1.92,0,0,1,95.06,56.29Z"/><path class="cls-58" d="M94.89,48.36l.57.58-.08,1.7c-.64-.51-.3-1.29-.53-1.92A.26.26,0,0,1,94.89,48.36Z"/><path class="cls-86" d="M102,39.85a1.61,1.61,0,0,1-.06-2.29Z"/><path class="cls-68" d="M108.1,47.32c0-3.38.08-6.77.13-10.15a.47.47,0,0,1,.6,0c-.11,4.48.46,9-.17,13.43C108,49.61,108.71,48.35,108.1,47.32Z"/><path class="cls-92" d="M108.61,51a7.21,7.21,0,0,1-.43,3.8,6.62,6.62,0,0,1-.05-3.8Q108.37,50.69,108.61,51Z"/><path class="cls-93" d="M108.72,37.4h-1.31l-.71-.6a1.27,1.27,0,0,1,.84-.6c1.85,0,3.89-.36,5.45.59C111.68,37.66,110,36.93,108.72,37.4Z"/><path class="cls-69" d="M108.61,51h-.48l0-3.68c.88,1,.26,2.22.56,3.3A.3.3,0,0,1,108.61,51Z"/><path class="cls-50" d="M107.54,36.19l-.84.6c-1-.06-2.69,0-1.94-.83C105.32,35.32,106.65,35.89,107.54,36.19Z"/><path class="cls-59" d="M115.56,35.53a8.47,8.47,0,0,1,5.24.74C119,36.8,117.28,36,115.56,35.53Z"/><path class="cls-60" d="M115.53,40.85a3.89,3.89,0,0,1-.3,2.4c-.29,0-.34-.34-.51-.5l-.06-5.27c0-.44.13-.8.65-.47.13.08.09.43.13.65A5.68,5.68,0,0,0,115.53,40.85Z"/><path class="cls-61" d="M118.71,56.07c1.29.16,2.64-.26,3.92.43a7.26,7.26,0,0,1-4.91.09C117.9,56.13,118.45,56.39,118.71,56.07Z"/><path class="cls-23" d="M115.35,45.85l3.48.08c-1,1.28-2.34.68-3.46,1A.66.66,0,0,1,115.35,45.85Z"/><path class="cls-62" d="M115.56,48.55a11.22,11.22,0,0,1-.54,4.59,7.46,7.46,0,0,1,.08-4.59C115.25,48.34,115.4,48.35,115.56,48.55Z"/><path class="cls-63" d="M118.71,56.07l-1,.52-2.14,0c-.21.11-.45.16-.54-.09a.72.72,0,0,1,.45-.89Z"/><path class="cls-64" d="M115.56,48.55h-.46c0-1.38,0-2.76,0-4.14.12-.21.24-.2.37,0l.18.82,0,1.13C115.63,47.08,115.59,47.82,115.56,48.55Z"/><path class="cls-43" d="M115.78,55c0,.33-.48.7.09,1-.94,1-.9-.08-.94-.53s-.52-1.12.29-1.28C115.6,54.11,115.71,54.64,115.78,55Z"/><path class="cls-40" d="M115.53,40.85a3.17,3.17,0,0,1-.09-3.19Z"/><path class="cls-65" d="M115.46,44.4h-.37L115,42.12l.52.5Z"/><path class="cls-66" d="M128.32,48.58l.21,8.18-.65.07a69.41,69.41,0,0,1-.34-7.78C127.7,48.72,127.85,48.39,128.32,48.58Z"/><path class="cls-67" d="M127.7,36.61a6.47,6.47,0,0,1,0,4.17,7.75,7.75,0,0,1-.47-4.18A.32.32,0,0,1,127.7,36.61Z"/><path class="cls-47" d="M127.7,36.61h-.48l-.07-.83a2.38,2.38,0,0,1,2.27-.2l.52,1C129.19,36.47,128.42,36,127.7,36.61Z"/><path class="cls-68" d="M131.42,38.68l-.46.58c-.36-.92-.71-1.84-1.07-2.75C131,36.8,131.27,37.7,131.42,38.68Z"/><path class="cls-69" d="M127.71,40.72a15,15,0,0,1,.11,4.18c-.16.22-.33.22-.5,0C127.38,43.51,126.48,42,127.71,40.72Z"/><path class="cls-69" d="M127.93,46.1c.73.31,1.27-.44,2-.35-.2.75-1.15,1-1.18,1.88-.49.17-.78-.06-1-.48a.24.24,0,0,1,.06-.25A.6.6,0,0,1,127.93,46.1Z"/><path class="cls-70" d="M127.74,47.15l1,.48c.35.52.13.8-.4.95l-.78.47C127.3,48.39,127,47.72,127.74,47.15Z"/><path class="cls-71" d="M130.25,50.33c.93.51,1.36,1.07,1.3,1.92a.49.49,0,0,1-.36.21C130.45,52.08,130.21,51.44,130.25,50.33Z"/><path class="cls-72" d="M127.93,46.1l-.13.8c-1.32-.38-.63-1.25-.48-2h.5Z"/><path class="cls-73" d="M129.42,35.57l-2.27.2C127.83,34.87,128.6,35,129.42,35.57Z"/><path class="cls-69" d="M131.25,50.31a14.76,14.76,0,0,1,2.3,3.49c0,.27-.15.36-.41.27C132.45,52.85,130.89,52.06,131.25,50.31Z"/></g></g></g></svg>